# xmcd
#
# Track frame offsets:
#	150
#	18270
#	34541
#	53483
#	71939
#	90563
#	108344
#	127556
#	141786
#	156887
#	172104
#	193921
#	210852
#
# Disc length: 2913 seconds
#
# Revision: 1
# Processed by: cddbd v1.5.2PL0 Copyright (c) Steve Scherf et al.
# Submitted via: audiograbber 1.83.01
#
DISCID=a50b5f0d
DTITLE=Billy Bob Thornton - Beautiful Door
DYEAR=2007
DGENRE=
TTITLE0=It's Just Me
TTITLE1=Restin' Your Soul
TTITLE2=In The Day
TTITLE3=Beautiful Door
TTITLE4=I Gotta Grow Up
TTITLE5=Hearts Like Mine
TTITLE6=Carnival Girl
TTITLE7=Always Countin'
TTITLE8=Pretty People
TTITLE9=I Can Tell You
TTITLE10=Hope For Glory
TTITLE11=The Boy Is Gone
TTITLE12=Little Boxes
EXTD=
EXTT0=
EXTT1=
EXTT2=
EXTT3=
EXTT4=
EXTT5=
EXTT6=
EXTT7=
EXTT8=
EXTT9=
EXTT10=
EXTT11=
EXTT12=
PLAYORDER=
